<svg xmlns="http://www.w3.org/2000/svg" width="128" height="128" viewBox="0 0 128 128">
  <defs>
    <linearGradient id="bg" x1="0" y1="0" x2="1" y2="1">
      <stop offset="0" stop-color="#3b4dd0"/><stop offset="1" stop-color="#14c8b0"/>
    </linearGradient>
    <clipPath id="r"><rect width="128" height="128" rx="30" ry="30"/></clipPath>
    <filter id="sh" x="-30%" y="-30%" width="160%" height="160%">
      <feDropShadow dx="0" dy="2.4" stdDeviation="2.4" flood-color="#0a1430" flood-opacity="0.45"/>
    </filter>
  </defs>
  <g clip-path="url(#r)">
    <rect width="128" height="128" fill="url(#bg)"/>
    <line x1="17.28" y1="74.88" x2="110.72" y2="74.88" stroke="#fff" stroke-opacity="0.28" stroke-width="2"/>
    <path d="M 17.28 73.39 L 18.06 73.20 L 18.84 72.99 L 19.62 72.75 L 20.39 72.49 L 21.17 72.21 L 21.95 71.90 L 22.73 71.55 L 23.51 71.18 L 24.29 70.77 L 25.07 70.33 L 25.85 69.85 L 26.62 69.33 L 27.40 68.76 L 28.18 68.16 L 28.96 67.51 L 29.74 66.81 L 30.52 66.07 L 31.30 65.27 L 32.07 64.43 L 32.85 63.53 L 33.63 62.58 L 34.41 61.58 L 35.19 60.53 L 35.97 59.43 L 36.75 58.27 L 37.53 57.07 L 38.30 55.81 L 39.08 54.51 L 39.86 53.17 L 40.64 51.78 L 41.42 50.36 L 42.20 48.89 L 42.98 47.40 L 43.75 45.88 L 44.53 44.34 L 45.31 42.78 L 46.09 41.22 L 46.87 39.64 L 47.65 38.07 L 48.43 36.50 L 49.21 34.95 L 49.98 33.43 L 50.76 31.93 L 51.54 30.46 L 52.32 29.04 L 53.10 27.67 L 53.88 26.36 L 54.66 25.11 L 55.43 23.94 L 56.21 22.84 L 56.99 21.83 L 57.77 20.90 L 58.55 20.08 L 59.33 19.35 L 60.11 18.72 L 60.89 18.21 L 61.66 17.80 L 62.44 17.51 L 63.22 17.34 L 64.00 17.28 L 64.78 17.34 L 65.56 17.51 L 66.34 17.80 L 67.11 18.21 L 67.89 18.72 L 68.67 19.35 L 69.45 20.08 L 70.23 20.90 L 71.01 21.83 L 71.79 22.84 L 72.57 23.94 L 73.34 25.11 L 74.12 26.36 L 74.90 27.67 L 75.68 29.04 L 76.46 30.46 L 77.24 31.93 L 78.02 33.43 L 78.79 34.95 L 79.57 36.50 L 80.35 38.07 L 81.13 39.64 L 81.91 41.22 L 82.69 42.78 L 83.47 44.34 L 84.25 45.88 L 85.02 47.40 L 85.80 48.89 L 86.58 50.36 L 87.36 51.78 L 88.14 53.17 L 88.92 54.51 L 89.70 55.81 L 90.47 57.07 L 91.25 58.27 L 92.03 59.43 L 92.81 60.53 L 93.59 61.58 L 94.37 62.58 L 95.15 63.53 L 95.93 64.43 L 96.70 65.27 L 97.48 66.07 L 98.26 66.81 L 99.04 67.51 L 99.82 68.16 L 100.60 68.76 L 101.38 69.33 L 102.15 69.85 L 102.93 70.33 L 103.71 70.77 L 104.49 71.18 L 105.27 71.55 L 106.05 71.90 L 106.83 72.21 L 107.61 72.49 L 108.38 72.75 L 109.16 72.99 L 109.94 73.20 L 110.72 73.39 L 110.72 74.88 L 17.28 74.88 Z" fill="#fff" fill-opacity="0.18"/>
    <path d="M 17.28 73.39 L 18.06 73.20 L 18.84 72.99 L 19.62 72.75 L 20.39 72.49 L 21.17 72.21 L 21.95 71.90 L 22.73 71.55 L 23.51 71.18 L 24.29 70.77 L 25.07 70.33 L 25.85 69.85 L 26.62 69.33 L 27.40 68.76 L 28.18 68.16 L 28.96 67.51 L 29.74 66.81 L 30.52 66.07 L 31.30 65.27 L 32.07 64.43 L 32.85 63.53 L 33.63 62.58 L 34.41 61.58 L 35.19 60.53 L 35.97 59.43 L 36.75 58.27 L 37.53 57.07 L 38.30 55.81 L 39.08 54.51 L 39.86 53.17 L 40.64 51.78 L 41.42 50.36 L 42.20 48.89 L 42.98 47.40 L 43.75 45.88 L 44.53 44.34 L 45.31 42.78 L 46.09 41.22 L 46.87 39.64 L 47.65 38.07 L 48.43 36.50 L 49.21 34.95 L 49.98 33.43 L 50.76 31.93 L 51.54 30.46 L 52.32 29.04 L 53.10 27.67 L 53.88 26.36 L 54.66 25.11 L 55.43 23.94 L 56.21 22.84 L 56.99 21.83 L 57.77 20.90 L 58.55 20.08 L 59.33 19.35 L 60.11 18.72 L 60.89 18.21 L 61.66 17.80 L 62.44 17.51 L 63.22 17.34 L 64.00 17.28 L 64.78 17.34 L 65.56 17.51 L 66.34 17.80 L 67.11 18.21 L 67.89 18.72 L 68.67 19.35 L 69.45 20.08 L 70.23 20.90 L 71.01 21.83 L 71.79 22.84 L 72.57 23.94 L 73.34 25.11 L 74.12 26.36 L 74.90 27.67 L 75.68 29.04 L 76.46 30.46 L 77.24 31.93 L 78.02 33.43 L 78.79 34.95 L 79.57 36.50 L 80.35 38.07 L 81.13 39.64 L 81.91 41.22 L 82.69 42.78 L 83.47 44.34 L 84.25 45.88 L 85.02 47.40 L 85.80 48.89 L 86.58 50.36 L 87.36 51.78 L 88.14 53.17 L 88.92 54.51 L 89.70 55.81 L 90.47 57.07 L 91.25 58.27 L 92.03 59.43 L 92.81 60.53 L 93.59 61.58 L 94.37 62.58 L 95.15 63.53 L 95.93 64.43 L 96.70 65.27 L 97.48 66.07 L 98.26 66.81 L 99.04 67.51 L 99.82 68.16 L 100.60 68.76 L 101.38 69.33 L 102.15 69.85 L 102.93 70.33 L 103.71 70.77 L 104.49 71.18 L 105.27 71.55 L 106.05 71.90 L 106.83 72.21 L 107.61 72.49 L 108.38 72.75 L 109.16 72.99 L 109.94 73.20 L 110.72 73.39" fill="none" stroke="#fff" stroke-width="5" stroke-linecap="round" stroke-linejoin="round" filter="url(#sh)"/>
    <circle cx="64.00" cy="17.28" r="11" fill="#ffb020" fill-opacity="0.35"/>
    <circle cx="64.00" cy="17.28" r="6.6" fill="#ffb020"/>
    <circle cx="64.00" cy="17.28" r="3" fill="#fff"/>
    <text x="64" y="104" text-anchor="middle" font-family="'Arial Black','Arial',sans-serif" font-weight="900" font-size="35" fill="#fff">MCP</text>
  </g>
</svg>
