<svg xmlns="http://www.w3.org/2000/svg" width="128" height="128" viewBox="0 0 128 128">
  <defs>
    <linearGradient id="bg" x1="0" y1="0" x2="0" y2="1">
      <stop offset="0" stop-color="#f4f8fc"/><stop offset="1" stop-color="#d6e4f2"/>
    </linearGradient>
    <radialGradient id="ball" cx="0.36" cy="0.32" r="0.78">
      <stop offset="0" stop-color="#ff8a70"/><stop offset="0.45" stop-color="#e2281c"/>
      <stop offset="1" stop-color="#960c08"/>
    </radialGradient>
    <clipPath id="rc"><rect width="128" height="128" rx="30" ry="30"/></clipPath>
    <clipPath id="ball-clip"><circle cx="64.0" cy="51.84" r="38.4"/></clipPath>
    <filter id="sh" x="-40%" y="-40%" width="180%" height="180%">
      <feDropShadow dx="0" dy="3" stdDeviation="3.5" flood-color="#142850" flood-opacity="0.45"/>
    </filter>
  </defs>
  <g clip-path="url(#rc)">
    <rect width="128" height="128" fill="url(#bg)"/>
    <circle cx="64.0" cy="51.84" r="38.4" fill="url(#ball)" filter="url(#sh)"/>
    <g clip-path="url(#ball-clip)">
      <g stroke="#fff" stroke-opacity="0.24" stroke-width="0.8"><line x1="40.96" y1="13.44" x2="40.96" y2="90.24"/><line x1="25.60" y1="28.80" x2="102.40" y2="28.80"/><line x1="56.32" y1="13.44" x2="56.32" y2="90.24"/><line x1="25.60" y1="44.16" x2="102.40" y2="44.16"/><line x1="71.68" y1="13.44" x2="71.68" y2="90.24"/><line x1="25.60" y1="59.52" x2="102.40" y2="59.52"/><line x1="87.04" y1="13.44" x2="87.04" y2="90.24"/><line x1="25.60" y1="74.88" x2="102.40" y2="74.88"/></g>
      <polyline points="46.34,66.43 55.52,48.77 64.00,59.52 72.83,39.55 81.66,48.00" fill="none" stroke="#fff" stroke-opacity="0.7" stroke-width="5" stroke-linejoin="round" stroke-linecap="round"/>
      <polyline points="46.34,66.43 55.52,48.77 64.00,59.52 72.83,39.55 81.66,48.00" fill="none" stroke="#1446c8" stroke-width="3" stroke-linejoin="round" stroke-linecap="round"/>
      <rect x="41.50" y="61.59" width="9.68" height="9.68" fill="#fff"/><rect x="42.50" y="62.59" width="7.68" height="7.68" fill="#1446c8"/><rect x="50.68" y="43.93" width="9.68" height="9.68" fill="#fff"/><rect x="51.68" y="44.93" width="7.68" height="7.68" fill="#1446c8"/><rect x="59.16" y="54.68" width="9.68" height="9.68" fill="#fff"/><rect x="60.16" y="55.68" width="7.68" height="7.68" fill="#1446c8"/><rect x="67.99" y="34.71" width="9.68" height="9.68" fill="#fff"/><rect x="68.99" y="35.71" width="7.68" height="7.68" fill="#1446c8"/><rect x="76.82" y="43.16" width="9.68" height="9.68" fill="#fff"/><rect x="77.82" y="44.16" width="7.68" height="7.68" fill="#1446c8"/>
    </g>
    <circle cx="64.0" cy="51.84" r="38.4" fill="none" stroke="#780806" stroke-opacity="0.6" stroke-width="0.8"/>
    <text x="64" y="113" text-anchor="middle" font-family="'Arial Black','Arial',sans-serif" font-weight="900" font-size="30" fill="#12346e">MCP</text>
  </g>
</svg>
